<?xml version="1.0" standalone="no"?>
<!DOCTYPE svg PUBLIC "-//W3C//DTD SVG 20010904//EN"
 "http://www.w3.org/TR/2001/REC-SVG-20010904/DTD/svg10.dtd">
<svg version="1.0" xmlns="http://www.w3.org/2000/svg"
 width="366.000000pt" height="366.000000pt" viewBox="0 0 366.000000 366.000000"
 preserveAspectRatio="xMidYMid meet">
<metadata>
Created by potrace 1.11, written by Peter Selinger 2001-2013
</metadata>
<g transform="translate(0.000000,366.000000) scale(0.100000,-0.100000)"
fill="#000000" stroke="none">
<path d="M652 3181 c-29 -10 -67 -31 -83 -47 -58 -55 -70 -93 -90 -298 -11
-105 -22 -201 -24 -212 -5 -20 -12 -22 -133 -26 -113 -3 -135 -7 -178 -29 -55
-28 -108 -91 -124 -147 -14 -51 -14 -1743 0 -1794 15 -54 68 -118 120 -144
l45 -23 1409 -1 c1409 0 1410 0 1453 21 53 25 106 86 121 138 7 21 12 71 12
110 l0 72 34 -7 c59 -11 141 20 195 74 50 51 65 88 75 187 10 92 81 793 126
1243 39 381 40 406 26 455 -8 29 -29 68 -46 89 -64 77 21 64 -1498 218 -760
77 -1382 140 -1384 140 -2 -1 -27 -9 -56 -19z m1443 -321 c715 -72 1310 -133
1321 -135 12 -3 24 -11 27 -18 5 -15 -158 -1657 -169 -1689 -4 -14 -15 -18
-49 -18 l-44 0 -3 713 -3 712 -22 41 c-25 47 -71 89 -123 113 -31 14 -158 16
-1205 19 l-1171 2 19 188 c20 208 24 217 87 208 19 -3 620 -64 1335 -136z
m866 -470 c19 -10 19 -30 19 -855 0 -464 -3 -850 -6 -859 -6 -14 -136 -16
-1379 -16 -1243 0 -1373 2 -1379 16 -3 9 -6 395 -6 859 0 793 1 845 18 854 24
14 2706 15 2733 1z"/>
<path d="M1045 1884 c-119 -30 -178 -93 -178 -189 0 -106 49 -152 237 -220 61
-22 86 -47 86 -85 0 -82 -115 -108 -224 -51 l-56 30 -35 -41 c-33 -39 -34 -43
-18 -60 31 -35 122 -69 198 -75 176 -13 295 70 295 206 0 61 -13 97 -48 134
-33 35 -58 48 -162 86 -100 37 -110 45 -110 87 0 66 93 86 185 39 l49 -24 32
37 c18 20 33 40 34 44 0 10 -54 46 -94 63 -37 16 -157 27 -191 19z"/>
<path d="M1637 1880 c-97 -25 -172 -92 -204 -184 -13 -37 -18 -81 -18 -166 0
-103 3 -121 26 -170 48 -104 125 -158 238 -167 176 -15 294 84 323 272 21 133
-16 279 -89 347 -61 58 -189 89 -276 68z m159 -144 c35 -40 46 -99 42 -221 -4
-128 -20 -169 -81 -198 -44 -22 -85 -16 -127 19 -40 34 -54 83 -54 194 -1 117
16 182 57 216 27 23 38 26 86 22 43 -4 59 -10 77 -32z"/>
<path d="M610 1565 c0 -337 -3 -358 -59 -391 -36 -21 -36 -24 -15 -81 19 -48
23 -50 79 -24 56 25 102 67 128 115 21 39 22 53 25 364 l3 322 -80 0 -81 0 0
-305z"/>
<path d="M2100 1540 l0 -330 71 0 71 0 -4 240 c-3 184 -1 233 7 212 7 -15 47
-123 90 -239 l78 -213 104 0 103 0 0 330 0 330 -71 0 -71 0 4 -244 c1 -135 0
-237 -3 -228 -15 38 -168 438 -174 455 -6 15 -21 17 -106 17 l-99 0 0 -330z"/>
</g>
</svg>
